<svg width="48" height="48" viewBox="0 0 48 48" fill="none" xmlns="http://www.w3.org/2000/svg">
<rect width="48" height="48" rx="24" fill="#0C7792"/>
<path d="M16.4043 25.6099C15.5152 25.1448 15 24.5924 15 24C15 22.3431 19.0294 21 24 21C28.9706 21 33 22.3431 33 24C33 24.7144 32.2508 25.3705 31 25.8858" stroke="white" stroke-width="1.5" stroke-linecap="round" stroke-linejoin="round"/>
<path d="M24 23.01L24.01 22.9989" stroke="white" stroke-width="1.5" stroke-linecap="round" stroke-linejoin="round"/>
<path d="M28.8827 18C28.878 16.9771 28.6199 16.2531 28.0856 15.9809C26.6093 15.2287 23.5832 18.2092 21.3267 22.6379C19.0701 27.0667 18.4375 31.2668 19.9138 32.019C20.4412 32.2877 21.1664 32.08 21.9837 31.5" stroke="white" stroke-width="1.5" stroke-linecap="round" stroke-linejoin="round"/>
<path d="M21.6009 16.2517C20.9406 15.8658 20.3572 15.7549 19.9137 15.9809C18.4374 16.7331 19.07 20.9331 21.3266 25.3619C23.5832 29.7907 26.6092 32.7712 28.0855 32.019C29.3977 31.3504 29.0438 27.9577 27.3641 24.1016" stroke="white" stroke-width="1.5" stroke-linecap="round" stroke-linejoin="round"/>
</svg>
