<svg width="48" height="48" viewBox="0 0 48 48" fill="none" xmlns="http://www.w3.org/2000/svg">
<rect width="48" height="48" rx="24" fill="#0C7792"/>
<path d="M20 31C21.1046 31 22 30.1046 22 29C22 27.8954 21.1046 27 20 27C18.8954 27 18 27.8954 18 29C18 30.1046 18.8954 31 20 31Z" stroke="white" stroke-width="1.5" stroke-miterlimit="1.5" stroke-linecap="round" stroke-linejoin="round"/>
<path d="M30 31C31.1046 31 32 30.1046 32 29C32 27.8954 31.1046 27 30 27C28.8954 27 28 27.8954 28 29C28 30.1046 28.8954 31 30 31Z" stroke="white" stroke-width="1.5" stroke-miterlimit="1.5" stroke-linecap="round" stroke-linejoin="round"/>
<path d="M22.05 29H27V18.6C27 18.2686 26.7314 18 26.4 18H13" stroke="white" stroke-width="1.5" stroke-linecap="round"/>
<path d="M17.65 29H15.6C15.2686 29 15 28.7314 15 28.4V23.5" stroke="white" stroke-width="1.5" stroke-linecap="round"/>
<path d="M14 21H18" stroke="white" stroke-width="1.5" stroke-linecap="round" stroke-linejoin="round"/>
<path d="M27 21H32.6101C32.8472 21 33.0621 21.1396 33.1584 21.3563L34.9483 25.3836C34.9824 25.4604 35 25.5434 35 25.6273V28.4C35 28.7314 34.7314 29 34.4 29H32.5" stroke="white" stroke-width="1.5" stroke-linecap="round"/>
<path d="M27 29H28" stroke="white" stroke-width="1.5" stroke-linecap="round"/>
</svg>
