<svg width="48" height="48" viewBox="0 0 48 48" fill="none" xmlns="http://www.w3.org/2000/svg">
<rect width="48" height="48" rx="24" fill="#0C7792"/>
<path d="M31 34H19M19 34H17M19 34V31" stroke="white" stroke-width="1.5" stroke-linecap="round" stroke-linejoin="round"/>
<path d="M31 28H22" stroke="white" stroke-width="1.5" stroke-linecap="round" stroke-linejoin="round"/>
<path d="M28 14H24" stroke="white" stroke-width="1.5" stroke-linecap="round" stroke-linejoin="round"/>
<path d="M24 19C21 19 19 20 19 23V25" stroke="white" stroke-width="1.5" stroke-linecap="round" stroke-linejoin="round"/>
<path d="M28 16.6V23.4C28 23.7314 27.7314 24 27.4 24H24.6C24.2686 24 24 23.7314 24 23.4V16.6C24 16.2686 24.2686 16 24.6 16H27.4C27.7314 16 28 16.2686 28 16.6Z" stroke="white" stroke-width="1.5" stroke-linecap="round" stroke-linejoin="round"/>
<path d="M19 31C17.3432 31 16 29.6569 16 28C16 26.3431 17.3432 25 19 25C20.6568 25 22 26.3431 22 28C22 29.6569 20.6568 31 19 31Z" stroke="white" stroke-width="1.5" stroke-linecap="round" stroke-linejoin="round"/>
</svg>
