<svg width="48" height="48" viewBox="0 0 48 48" fill="none" xmlns="http://www.w3.org/2000/svg">
<rect width="48" height="48" rx="24" fill="#0C7792"/>
<path d="M24.0508 23.845L24.2501 23.7561V33.0002H23.7501V23.7561L23.9493 23.845L24.0001 23.7307L24.0508 23.845ZM23.1661 21.8557L23.2305 22.0002H22.7501V22.218L15.3555 18.9319L15.5587 18.4749L23.1661 21.8557ZM32.6446 18.9319L25.2501 22.218V22.0002H24.7696L24.8331 21.8557L32.4415 18.4749L32.6446 18.9319Z" fill="#11181C" stroke="white"/>
<path d="M15 29.1102V18.89C15 18.6529 15.1396 18.438 15.3563 18.3417L23.7563 14.6084C23.9115 14.5394 24.0885 14.5394 24.2437 14.6084L32.6437 18.3417C32.8604 18.438 33 18.6529 33 18.89V29.1102C33 29.3473 32.8604 29.5622 32.6437 29.6585L24.2437 33.3918C24.0885 33.4607 23.9115 33.4607 23.7563 33.3918L15.3563 29.6585C15.1396 29.5622 15 29.3473 15 29.1102Z" stroke="white" stroke-width="1.5" stroke-linecap="round" stroke-linejoin="round"/>
<path d="M19.5 16.5L28.1437 20.3416C28.3604 20.4379 28.5 20.6528 28.5 20.8899V24.5" stroke="white" stroke-width="1.5" stroke-linecap="round" stroke-linejoin="round"/>
</svg>
